<?xml version="1.0" encoding="iso-8859-1"?>
<!-- Uploaded to: SVG Repo, www.svgrepo.com, Generator: SVG Repo Mixer Tools -->
<!DOCTYPE svg PUBLIC "-//W3C//DTD SVG 1.1//EN" "http://www.w3.org/Graphics/SVG/1.1/DTD/svg11.dtd">
<svg fill="#000000" height="800px" width="800px" version="1.1" id="Capa_1" xmlns="http://www.w3.org/2000/svg" xmlns:xlink="http://www.w3.org/1999/xlink" 
	 viewBox="0 0 59 59" xml:space="preserve">
<g>
	<path d="M33.831,20.139c0.032-0.224,0.002-0.458-0.127-0.665c-1.475-2.382-1.849-7.492-1.853-7.543
		c-0.039-0.551-0.514-0.963-1.067-0.928c-0.551,0.039-0.966,0.516-0.928,1.067c0.015,0.216,0.367,5.03,1.855,7.933
		c-0.009,0.001-0.018,0-0.027,0.001c-2.129,0.061-15.054,0.885-15.828,11.888c-0.426,6.058,0.939,9.137,5.843,13.176
		c5.974,4.919,8.639,7.334,9.225,13.034C30.977,58.613,31.406,59,31.919,59s0.942-0.388,0.995-0.898
		c0.566-5.504,3.101-8.06,8.248-12.334c0,0,0.001,0,0.001-0.001l0.206-0.17c0,0,0.001-0.001,0.001-0.001
		c0.211-0.175,0.418-0.347,0.638-0.528c4.904-4.039,6.27-7.118,5.843-13.176C47.205,22.7,38.076,20.613,33.831,20.139z
		 M31.906,53.56c-1.32-3.345-3.816-5.758-7.569-8.9c2.219-2.994,4.86-4.649,7.517-4.649c2.657,0,5.302,1.648,7.522,4.645
		C35.668,47.762,33.207,50.159,31.906,53.56z"/>
	<path d="M24.06,18.245l4.998-1.045c0.311-0.065,0.571-0.273,0.704-0.561c0.133-0.288,0.121-0.622-0.032-0.899l-2.457-4.477
		c-2.328-4.243-6.779-6.878-11.616-6.878c-0.91,0-1.824,0.095-2.717,0.282L7.942,5.711c-0.31,0.065-0.571,0.273-0.704,0.561
		C7.106,6.56,7.117,6.893,7.27,7.171l2.457,4.477c2.329,4.243,6.78,6.878,11.616,6.878C22.253,18.526,23.167,18.432,24.06,18.245z"
		/>
	<path d="M51.561,0.293c-0.224-0.225-0.541-0.33-0.854-0.282l-5.051,0.752C39.847,1.628,35.363,6.112,34.498,11.92l-0.752,5.051
		c-0.046,0.313,0.058,0.63,0.282,0.854c0.189,0.189,0.444,0.293,0.707,0.293c0.049,0,0.098-0.003,0.147-0.011l5.051-0.752
		c5.809-0.865,10.292-5.349,11.157-11.157l0.752-5.051C51.889,0.834,51.785,0.518,51.561,0.293z"/>
</g>
</svg>